C:\Users\r0593348\3dpredictsim\Results\Batchsim_tmt_linear_v2\Pog_s1_tmt_aCst_d00_k250_ig24_act_GRF.mot
nRows=15
nColumns=19

name C:\Users\r0593348\3dpredictsim\Results\Batchsim_tmt_linear_v2\Pog_s1_tmt_aCst_d00_k250_ig24_act_GRF.mot
datacolumns 19
datarows 15
range 0.5142418813 0.6582296081
endheader
time 	ground_force_vx	ground_force_vy	ground_force_vz	ground_force_px	ground_force_py	ground_force_pz	1_ground_force_vx	1_ground_force_vy	1_ground_force_vz	1_ground_force_px	1_ground_force_py	1_ground_force_pz	ground_torque_x	ground_torque_y	ground_torque_z	1_ground_torque_x	1_ground_torque_y	1_ground_torque_z
        0.5142418813	       34.3696864459	      266.9410988946	       13.7500894868	        0.3185495401	        0.0000000000	        0.0476048233	     -128.9642222619	       98.0521313368	       -1.3396036243	        0.9027394124	        0.0000000000	       -0.0506747849	        0.0000000000	        0.0000000000	        0.0000000000	        0.0000000000	        0.0000000000	        0.0000000000	
        0.5245267189	       37.5329875081	      240.8748492207	       13.8277671704	        0.3187491139	        0.0000000000	        0.0476001901	     -194.7922631699	      180.3387856271	       -2.5178504876	        0.8830547569	        0.0000000000	       -0.0553169637	        0.0000000000	        0.0000000000	        0.0000000000	        0.0000000000	        0.0000000000	        0.0000000000	
        0.5348115565	       39.2448869972	      207.5257137904	       17.1902323305	        0.3190522245	        0.0000000000	        0.0477933472	     -126.8775860568	      374.1725081216	       -1.6087850766	        0.8593438590	        0.0000000000	       -0.0596815139	        0.0000000000	        0.0000000000	        0.0000000000	        0.0000000000	        0.0000000000	        0.0000000000	
        0.5450963942	       35.0043393130	      168.9382641514	       20.5559860130	        0.3191195647	        0.0000000000	        0.0480721217	     -105.8486886654	      566.0567318100	        3.8056609848	        0.8443987621	        0.0000000000	       -0.0601714258	        0.0000000000	        0.0000000000	        0.0000000000	        0.0000000000	        0.0000000000	        0.0000000000	
        0.5553812318	       24.6538118839	      122.0864716489	       21.5396527478	        0.3189279101	        0.0000000000	        0.0484029851	     -113.4904300660	      777.2271217258	        9.2895001640	        0.8356202555	        0.0000000000	       -0.0597563236	        0.0000000000	        0.0000000000	        0.0000000000	        0.0000000000	        0.0000000000	        0.0000000000	
        0.5656660694	        7.5031952201	       62.3125382193	       17.3223061132	        0.3180717699	        0.0000000000	        0.0489853498	     -121.6838018536	      926.3293453240	       11.7832924132	        0.8299781009	        0.0000000000	       -0.0590958062	        0.0000000000	        0.0000000000	        0.0000000000	        0.0000000000	        0.0000000000	        0.0000000000	
        0.5759509070	       -9.4375165686	       13.6729713821	        6.4168117263	        0.3112902538	        0.0000000000	        0.0498052134	     -119.6792109589	      976.9514035147	       11.4671015167	        0.8270763662	        0.0000000000	       -0.0582943091	        0.0000000000	        0.0000000000	        0.0000000000	        0.0000000000	        0.0000000000	        0.0000000000	
        0.5862357447	      -14.6425493576	       12.7466420391	        1.6403083083	        0.3143792442	        0.0000000000	        0.0456938997	     -111.7832802488	      968.0677265896	        9.6528067394	        0.8254216429	        0.0000000000	       -0.0573884221	        0.0000000000	        0.0000000000	        0.0000000000	        0.0000000000	        0.0000000000	        0.0000000000	
        0.5965205823	      -19.2044315114	       14.1825693326	        1.1129538666	        0.3252528041	        0.0000000000	        0.0448024014	      -99.7905811274	      934.0796305614	        8.9113794476	        0.8251013763	        0.0000000000	       -0.0566588687	        0.0000000000	        0.0000000000	        0.0000000000	        0.0000000000	        0.0000000000	        0.0000000000	
        0.6068054199	      -20.4345085521	       13.3777166991	        0.7633302050	        0.3403191936	        0.0000000000	        0.0442442389	      -87.4424257064	      892.4826184178	       10.8432519638	        0.8262668318	        0.0000000000	       -0.0561883789	        0.0000000000	        0.0000000000	        0.0000000000	        0.0000000000	        0.0000000000	        0.0000000000	
        0.6170902576	      -19.4601592314	       11.5343051509	        0.3428562367	        0.3588177504	        0.0000000000	        0.0438132699	      -76.2559348937	      853.4965894309	       13.4888307958	        0.8283883754	        0.0000000000	       -0.0558765794	        0.0000000000	        0.0000000000	        0.0000000000	        0.0000000000	        0.0000000000	        0.0000000000	
        0.6273750952	      -15.4109538140	        8.4321379546	        0.0889959735	        0.0000000000	        0.0000000000	        0.0000000000	      -65.8290155419	      818.6357516007	       14.7730758261	        0.8309363158	        0.0000000000	       -0.0556694609	        0.0000000000	        0.0000000000	        0.0000000000	        0.0000000000	        0.0000000000	        0.0000000000	
        0.6376599328	      -10.1620179074	        5.2509894344	        0.0446161346	        0.0000000000	        0.0000000000	        0.0000000000	      -56.3887752106	      788.5183978334	       15.2046442628	        0.8334989148	        0.0000000000	       -0.0554914174	        0.0000000000	        0.0000000000	        0.0000000000	        0.0000000000	        0.0000000000	        0.0000000000	
        0.6479447704	       -6.2264767271	        3.0547600346	        0.0082756925	        0.0000000000	        0.0000000000	        0.0000000000	      -47.2990648473	      762.1718218220	       15.9744124350	        0.8357879809	        0.0000000000	       -0.0552904590	        0.0000000000	        0.0000000000	        0.0000000000	        0.0000000000	        0.0000000000	        0.0000000000	
        0.6582296081	       -4.3175084315	        2.0298767978	       -0.0032862192	        0.0000000000	        0.0000000000	        0.0000000000	      -39.7857075863	      737.9187759945	       17.0241833809	        0.8378332288	        0.0000000000	       -0.0550960375	        0.0000000000	        0.0000000000	        0.0000000000	        0.0000000000	        0.0000000000	        0.0000000000	
